
<svg version="1.0" xmlns="http://www.w3.org/2000/svg"
 width="800.000000pt" height="102.000000pt" viewBox="0 0 800.000000 102.000000"
>
<g transform="translate(0.000000,102.000000) scale(0.100000,-0.100000)"
fill="#000000" stroke="none">
<path d="M7452 510 c-2 -336 1 -449 10 -458 15 -15 132 -16 159 -2 18 10 19
26 19 455 0 287 -4 445 -10 445 -6 0 -9 -25 -8 -57 2 -32 2 -203 0 -380 l-2
-321 -34 -21 c-43 -27 -59 -26 -92 2 l-27 23 -7 380 -7 379 -1 -445z"/>
<path d="M7938 574 l-4 -376 -27 -24 c-35 -30 -61 -30 -95 -3 l-27 21 -5 326
-5 327 -3 -396 c-2 -451 -12 -409 92 -409 103 0 96 -33 96 473 0 244 -4 437
-9 437 -5 0 -10 -169 -13 -376z"/>
<path d="M54 810 l1 -75 87 -3 88 -3 0 -329 c0 -381 -5 -360 94 -360 102 0 96
-24 98 355 l3 330 90 5 90 5 1 70 c1 56 0 59 -3 15 -5 -71 -16 -84 -68 -77
-22 3 -59 3 -81 0 l-41 -5 -7 -272 -7 -271 -25 -23 c-31 -28 -64 -28 -97 -1
l-27 20 -2 272 -3 272 -90 5 -90 5 -6 70 -6 70 1 -75z"/>
<path d="M4692 475 c-2 -308 1 -414 10 -423 15 -15 132 -16 159 -2 17 10 19
23 19 160 l0 150 118 0 c78 0 122 4 130 12 15 15 17 142 2 133 -5 -3 -10 -33
-10 -67 l0 -60 -32 7 c-38 8 -181 7 -206 -2 -12 -4 -12 -1 3 10 11 8 32 17 45
20 21 3 19 5 -8 6 -18 0 -46 -6 -62 -14 -27 -14 -30 -21 -30 -63 0 -26 7 -60
15 -76 24 -46 19 -72 -20 -96 -37 -23 -65 -22 -98 4 -17 13 -19 42 -26 363
l-8 348 -1 -410z"/>
<path d="M3750 778 c-18 -39 -20 -68 -20 -304 0 -171 4 -273 12 -295 18 -55
45 -86 96 -111 42 -21 60 -23 187 -23 127 0 144 2 188 24 30 15 58 39 75 64
l27 40 3 277 c2 152 -1 285 -5 297 -4 12 -9 -79 -11 -205 -3 -221 -3 -228 -28
-280 -45 -91 -135 -144 -249 -145 -114 0 -207 53 -258 148 -19 36 -22 59 -25
251 -4 196 -2 215 16 258 12 25 19 46 16 46 -3 0 -14 -19 -24 -42z"/>
<path d="M3955 741 c-50 -11 -55 -33 -55 -278 0 -142 4 -223 10 -223 6 0 10
83 10 228 0 125 4 234 10 242 14 23 143 27 176 6 l25 -17 -3 -240 c-3 -218 1
-277 15 -217 8 37 2 451 -7 471 -5 9 -18 19 -30 21 -46 10 -123 13 -151 7z"/>
<path d="M672 389 c-2 -241 1 -328 10 -337 15 -15 132 -16 159 -2 18 10 19 23
19 234 0 274 -3 267 116 275 l79 6 1 70 2 70 -7 -57 c-3 -31 -9 -59 -13 -63
-3 -4 -38 -7 -77 -8 -59 -2 -74 -6 -93 -25 -22 -21 -23 -32 -28 -193 l-5 -171
-37 -22 c-37 -21 -37 -21 -73 -2 -31 17 -35 24 -36 60 -1 23 -5 142 -8 266
l-7 225 -2 -326z"/>
<path d="M1700 698 c0 -33 165 -625 178 -640 22 -26 190 -26 221 0 16 13 40
88 101 317 44 165 82 305 85 312 2 7 1 15 -4 17 -4 3 -32 -79 -61 -182 -29
-103 -55 -189 -58 -192 -2 -3 -2 6 1 20 3 14 3 31 -1 37 -5 7 -20 -32 -36 -92
-22 -83 -33 -107 -53 -120 -40 -27 -79 -34 -119 -23 -57 15 -79 45 -104 141
-17 64 -26 84 -35 77 -9 -7 -24 35 -60 165 -45 164 -55 193 -55 163z"/>
<path d="M5922 389 c-1 -242 1 -328 10 -337 18 -18 143 -16 162 4 14 13 16 49
16 239 0 272 -5 261 135 267 l60 3 3 68 c2 40 -1 67 -7 67 -6 0 -11 -27 -13
-61 l-3 -61 -73 -1 c-67 -2 -76 -4 -98 -30 -22 -25 -24 -38 -26 -130 -3 -213
-4 -219 -33 -244 -33 -29 -59 -29 -93 -2 l-27 21 -5 261 -6 262 -2 -326z"/>
<path d="M6367 703 c-4 -3 -7 -147 -7 -319 0 -362 -5 -344 91 -344 103 0 99
-10 99 223 0 111 5 219 11 240 12 45 36 57 118 57 31 0 62 5 69 12 14 14 16
128 2 128 -6 0 -10 -27 -10 -60 l0 -60 -59 0 c-71 0 -112 -13 -130 -42 -10
-16 -15 -72 -19 -186 -5 -159 -5 -163 -30 -182 -33 -26 -65 -25 -96 3 l-24 22
-4 257 c-2 142 -3 258 -4 258 0 0 -4 -3 -7 -7z"/>
<path d="M3002 384 c-2 -237 1 -323 10 -332 15 -15 132 -16 159 -2 18 10 19
23 19 234 0 274 -3 267 116 275 l79 6 1 70 c1 56 0 59 -3 15 -2 -30 -8 -59
-14 -65 -5 -5 -29 -8 -54 -6 -25 1 -61 -3 -81 -9 -55 -18 -64 -51 -64 -228 l0
-148 -30 -22 c-37 -28 -62 -28 -94 1 l-26 22 -8 255 -9 255 -1 -321z"/>
<path d="M5788 575 c-5 -72 -8 -187 -8 -257 0 -147 -2 -151 -95 -163 -27 -4
-75 -14 -105 -21 -104 -27 -169 -11 -248 61 -61 54 -75 102 -76 253 -1 103 2
134 17 161 22 45 14 53 -10 9 -16 -29 -18 -58 -18 -233 0 -200 0 -200 27 -247
39 -65 97 -92 198 -93 51 0 85 6 106 17 29 16 31 16 47 -3 13 -15 30 -19 80
-19 104 0 98 -23 95 345 -3 270 -4 300 -10 190z"/>
<path d="M1138 633 c-28 -31 -38 -95 -38 -240 0 -187 11 -236 64 -289 31 -32
54 -44 94 -53 67 -14 347 -15 373 -1 16 9 19 22 19 76 0 39 -4 63 -10 59 -5
-3 -7 -19 -4 -35 6 -25 3 -30 -20 -36 -15 -3 -86 -4 -159 -2 -146 5 -192 18
-259 76 -59 52 -77 109 -80 253 -2 109 0 129 18 167 24 47 24 50 2 25z"/>
<path d="M2363 623 c-15 -23 -18 -56 -21 -218 -4 -247 8 -288 101 -338 37 -19
57 -22 172 -22 145 0 187 13 238 75 41 48 49 95 45 285 -4 219 -23 258 -23 47
0 -143 -1 -148 -29 -199 -28 -51 -88 -103 -142 -123 -41 -16 -146 -14 -188 4
-56 23 -105 65 -134 115 -25 43 -27 55 -30 184 -4 121 -2 142 16 177 23 46 20
52 -5 13z"/>
<path d="M6823 623 c-16 -24 -18 -53 -18 -238 l0 -211 28 -42 c49 -75 84 -86
298 -90 218 -5 219 -4 219 83 0 30 -4 57 -10 60 -6 4 -10 -8 -10 -28 0 -23 -6
-37 -16 -41 -25 -10 -245 -6 -294 5 -69 15 -142 70 -176 132 -26 48 -29 62
-32 178 -4 111 -2 132 16 172 23 53 21 60 -5 20z"/>
<path d="M1637 519 c8 -114 -2 -180 -25 -172 -23 9 -33 25 -26 46 7 21 12 22
-71 -8 -39 -14 -107 -30 -152 -34 -102 -10 -115 -19 -99 -66 17 -48 26 -54 26
-17 l0 32 175 0 c169 0 175 1 186 22 14 27 7 236 -9 264 -8 14 -10 -2 -5 -67z"/>
<path d="M7328 462 c1 -75 -1 -132 -5 -126 -4 6 -16 13 -25 17 -20 7 -24 37
-6 55 6 6 -24 -2 -68 -19 -43 -16 -108 -32 -144 -35 -91 -8 -130 -21 -130 -45
0 -10 5 -19 10 -19 6 0 10 -11 10 -25 0 -14 5 -25 10 -25 6 0 10 14 10 30 l0
30 169 0 c135 0 171 3 181 15 14 17 10 259 -5 274 -7 7 -9 -36 -7 -127z"/>
</g>
</svg>
